<svg id="visual" viewBox="0 0 960 540" width="1920" height="1080" xmlns="http://www.w3.org/2000/svg" xmlns:xlink="http://www.w3.org/1999/xlink" version="1.1"><rect x="0" y="0" width="960" height="540" fill="#001220"></rect><defs><linearGradient id="grad1_0" x1="43.8%" y1="100%" x2="100%" y2="0%"><stop offset="14.444444444444446%" stop-color="#59fa3c" stop-opacity="1"></stop><stop offset="85.55555555555554%" stop-color="#59fa3c" stop-opacity="1"></stop></linearGradient></defs><defs><linearGradient id="grad1_1" x1="43.8%" y1="100%" x2="100%" y2="0%"><stop offset="14.444444444444446%" stop-color="#59fa3c" stop-opacity="1"></stop><stop offset="85.55555555555554%" stop-color="#001220" stop-opacity="1"></stop></linearGradient></defs><defs><linearGradient id="grad2_0" x1="0%" y1="100%" x2="56.3%" y2="0%"><stop offset="14.444444444444446%" stop-color="#59fa3c" stop-opacity="1"></stop><stop offset="85.55555555555554%" stop-color="#59fa3c" stop-opacity="1"></stop></linearGradient></defs><defs><linearGradient id="grad2_1" x1="0%" y1="100%" x2="56.3%" y2="0%"><stop offset="14.444444444444446%" stop-color="#001220" stop-opacity="1"></stop><stop offset="85.55555555555554%" stop-color="#59fa3c" stop-opacity="1"></stop></linearGradient></defs><g transform="translate(960, 540)"><path d="M-243 0C-219.2 -18.5 -195.3 -37.1 -191.2 -62.1C-187 -87.1 -202.5 -118.6 -196.6 -142.8C-190.7 -167 -163.4 -184 -137 -188.5C-110.6 -193 -85.1 -185.1 -62.4 -192.1C-39.8 -199.1 -19.9 -221.1 0 -243L0 0Z" fill="#00838c"></path><path d="M-121.5 0C-109.6 -9.3 -97.7 -18.5 -95.6 -31.1C-93.5 -43.6 -101.3 -59.3 -98.3 -71.4C-95.3 -83.5 -81.7 -92 -68.5 -94.3C-55.3 -96.5 -42.5 -92.6 -31.2 -96.1C-19.9 -99.6 -9.9 -110.5 0 -121.5L0 0Z" fill="#59fa3c"></path></g><g transform="translate(0, 0)"><path d="M243 0C207.2 14.2 171.3 28.4 169.3 55C167.2 81.6 198.9 120.5 196.6 142.8C194.2 165.2 157.8 170.9 132.3 182C106.7 193.1 91.9 209.6 71.7 220.6C51.5 231.7 25.7 237.3 0 243L0 0Z" fill="#00838c"></path><path d="M121.5 0C103.6 7.1 85.7 14.2 84.6 27.5C83.6 40.8 99.5 60.2 98.3 71.4C97.1 82.6 78.9 85.5 66.1 91C53.3 96.6 46 104.8 35.8 110.3C25.7 115.8 12.9 118.7 0 121.5L0 0Z" fill="#59fa3c"></path></g></svg>